<?xml version="1.0" encoding="utf-8"?>
<!-- Generator: Adobe Illustrator 25.2.0, SVG Export Plug-In . SVG Version: 6.00 Build 0)  -->
<svg version="1.1" xmlns="http://www.w3.org/2000/svg" xmlns:xlink="http://www.w3.org/1999/xlink" x="0px" y="0px"
	 viewBox="0 0 1283.87 509.66" style="enable-background:new 0 0 1283.87 509.66;" xml:space="preserve">
<style type="text/css">
	.st0{fill:#F0C30F;}
	.st1{fill:#E67E22;}
	.st2{fill:#F39C12;}
	.st3{fill:#D35400;}
	.st4{fill:#F7931A;stroke:#F7931A;stroke-width:8;stroke-miterlimit:10;}
</style>
<g id="Capa_3">
</g>
<g id="Capa_4">
</g>
<g id="Capa_2">
</g>
<g id="Capa_5">
	<g>
		<path class="st0" d="M229.86,334.79c2.29-2.94,4.88-4.41,5.67-4.85c32.32-18.34,63.66-38.53,96.91-55.14
			c52.79-26.36,92.89-51.14,96.2-53.6c0.19-0.14,1.47-1.11,3.36-2.08c2.16-1.11,4.31-2.31,6.78-2.22c5.01,0.17,8.33,4.4,8.53,4.67
			c2.65,3.48,2.64,7.64,2.62,9.04c-0.25,15.87-2.17,95.46-2.25,110.9c-0.1,18.77,1.68,101.86,0.74,113.81
			c-0.11,1.4-0.47,4.54-2.48,7.62c-0.54,0.83-2.88,4.22-6.98,5.67c-1.25,0.44-4.97,1.51-10.73-0.64
			c-16.49-6.17-84.1-51.67-124.66-71.05c0,0-7.25-3.46-66.75-42.35c-0.55-0.36-3.8-2.54-6.28-6.57c-0.78-1.27-4.03-6.57-2.1-10.99
			C228.78,336.17,229.21,335.62,229.86,334.79z"/>
		<path class="st1" d="M342.51,471.47c-5.52,2.57-10.55,2.14-14.56,1.89c-9.33-0.58-18.7,0.3-28.04-0.05
			c-8.06-0.3-16.13-0.41-24.18-0.76c-24.69-1.07-41.24,0.08-68.84-0.22c0,0-116.57-1.25-127.69,0.39c-0.28,0.04-2.13,0.33-4.58,0.25
			c-2.82-0.09-5.66-0.08-8.06-1.7c-4.87-3.28-5.6-10.03-5.64-10.46c-0.55-5.8,2.16-10.47,2.86-11.67
			c60.57-103.94,78.91-142.42,78.91-142.42s24.67-51.77,58.22-106.74c0.72-1.19,2.93-4.61,7.06-6.96c1.03-0.59,5.4-2.93,10.34-2.01
			c5.44,1.01,8.87,5.48,10.25,7.33c12.61,16.95,54.15,117.77,72.69,156.1c22.92,47.37,27.1,54.61,27.1,54.61
			c12.58,21.75,29.38,46.75,21.98,56.49C349.2,467.03,346.34,469.69,342.51,471.47z"/>
		<path class="st2" d="M293.66,91.11c2.09,3.09,2.68,6,2.86,6.89c7.47,36.41,16.99,72.44,22.52,109.2
			c8.77,58.35,19.96,104.15,21.28,108.05c0.08,0.23,0.6,1.74,0.95,3.84c0.39,2.4,0.86,4.81,0.02,7.13
			c-1.71,4.72-6.76,6.56-7.08,6.67c-4.29,1.5-8.38,0.04-9.4-0.3c-70.97-23.95-144.1-42.04-213.26-70.82c-0.88-0.37-4-1.64-6.48-4.72
			c-0.62-0.77-3.13-4.04-3.24-8.39c-0.03-1.32,0.09-5.19,3.93-10.01c10.96-13.78,75.11-64.03,106.08-96.63c0,0,5.53-5.83,60.9-50.41
			c0.51-0.41,3.59-2.83,8.19-3.94c1.45-0.35,7.49-1.81,11.1,1.39C292.68,89.66,293.07,90.23,293.66,91.11z"/>
		<path class="st2" d="M412.27,404.28c-0.02-1.51-0.03-3.03-0.05-4.54c-0.03-2.61-2.28-5.12-5-5c-0.71,0.03-1.4,0.21-2.02,0.49
			c-0.63-0.11-1.26-0.15-1.9-0.11c-0.15-0.06-0.28-0.13-0.44-0.17c-1.2-0.33-2.79-0.18-3.85,0.5c-1.42,0.91-2.55,2.78-2.54,4.58
			c-1.11,2.47-1.13,5.43,0.32,7.87c1.67,2.8,5.53,3.26,7.85,1.01c0.09-0.09,0.17-0.18,0.26-0.28c0.52,0.28,1.09,0.47,1.7,0.55
			c2.26,0.3,5.05-1.13,5.49-3.58c0.08-0.45,0.12-0.89,0.15-1.33C412.25,404.28,412.26,404.28,412.27,404.28z"/>
		<circle class="st1" cx="267.5" cy="156.47" r="14.39"/>
		<circle class="st1" cx="281.74" cy="212.37" r="14.25"/>
		<ellipse class="st3" cx="156.84" cy="389.01" rx="12.54" ry="13.53"/>
		<ellipse class="st3" cx="130.75" cy="430.69" rx="13.55" ry="12.34"/>
		<circle class="st3" cx="184.75" cy="431.7" r="13.35"/>
		<circle class="st2" cx="403.18" cy="402.46" r="13.46"/>
	</g>
	<g>
		<path class="st4" d="M497.3,342.8V238.29h33.89c12.24,0,22.32,2.14,30.23,6.42c7.91,4.28,13.78,10.33,17.62,18.14
			c3.83,7.82,5.75,17.1,5.75,27.84c0,10.65-1.92,19.88-5.75,27.7c-3.83,7.81-9.71,13.84-17.62,18.06
			c-7.91,4.23-17.99,6.35-30.23,6.35H497.3z M513.13,329.36h17.47c9.46,0,16.95-1.54,22.47-4.63c5.52-3.08,9.5-7.51,11.94-13.29
			c2.44-5.77,3.66-12.69,3.66-20.75s-1.22-15.03-3.66-20.9c-2.44-5.87-6.42-10.38-11.94-13.51c-5.52-3.14-13.01-4.7-22.47-4.7
			h-17.47V329.36z"/>
		<path class="st4" d="M636.3,344.59c-7.07,0-13.41-1.62-19.04-4.85c-5.62-3.23-10.08-7.76-13.36-13.59
			c-3.28-5.82-4.93-12.62-4.93-20.38s1.67-14.56,5-20.38c3.33-5.82,7.84-10.35,13.51-13.59c5.67-3.23,11.99-4.85,18.96-4.85
			c7.07,0,13.41,1.62,19.04,4.85c5.62,3.24,10.1,7.76,13.44,13.59c3.33,5.82,5,12.62,5,20.38s-1.67,14.56-5,20.38
			c-3.34,5.82-7.84,10.35-13.51,13.59C649.74,342.97,643.37,344.59,636.3,344.59z M636.3,331c3.78,0,7.29-0.94,10.53-2.84
			c3.23-1.89,5.85-4.7,7.84-8.44c1.99-3.73,2.99-8.38,2.99-13.96c0-5.57-0.97-10.23-2.91-13.96c-1.94-3.73-4.53-6.54-7.76-8.44
			c-3.24-1.89-6.74-2.84-10.53-2.84c-3.78,0-7.29,0.95-10.53,2.84c-3.24,1.89-5.85,4.7-7.84,8.44c-1.99,3.73-2.99,8.39-2.99,13.96
			c0,5.58,0.99,10.23,2.99,13.96c1.99,3.73,4.58,6.55,7.76,8.44C629.03,330.06,632.52,331,636.3,331z"/>
		<path class="st4" d="M691.09,342.8v-74.05h14.18l1.34,14.03c2.59-4.88,6.2-8.73,10.82-11.57s10.23-4.25,16.8-4.25v16.57h-4.33
			c-4.38,0-8.29,0.72-11.72,2.16c-3.43,1.44-6.17,3.88-8.21,7.32c-2.04,3.43-3.06,8.19-3.06,14.26v35.53H691.09z"/>
		<path class="st4" d="M756.78,254.71c-2.99,0-5.45-0.92-7.39-2.76c-1.94-1.84-2.91-4.15-2.91-6.94c0-2.79,0.97-5.1,2.91-6.94
			c1.94-1.84,4.4-2.76,7.39-2.76s5.45,0.92,7.39,2.76c1.94,1.84,2.91,4.16,2.91,6.94c0,2.79-0.97,5.1-2.91,6.94
			C762.23,253.79,759.77,254.71,756.78,254.71z M748.87,342.8v-74.05h15.83v74.05H748.87z"/>
		<path class="st4" d="M870.4,344.59c-10.35,0-19.29-2.26-26.8-6.79c-7.52-4.53-13.31-10.85-17.39-18.96
			c-4.08-8.11-6.12-17.49-6.12-28.14c0-10.75,2.04-20.18,6.12-28.29c4.08-8.11,9.88-14.46,17.39-19.04
			c7.51-4.58,16.45-6.87,26.8-6.87c12.24,0,22.25,2.99,30.01,8.96c7.76,5.97,12.69,14.33,14.78,25.08h-17.62
			c-1.4-6.07-4.38-10.9-8.96-14.48c-4.58-3.58-10.7-5.37-18.36-5.37c-10.45,0-18.71,3.56-24.78,10.67
			c-6.07,7.12-9.11,16.9-9.11,29.34c0,12.34,3.04,22.05,9.11,29.11c6.07,7.07,14.33,10.6,24.78,10.6c7.66,0,13.78-1.69,18.36-5.08
			c4.58-3.38,7.56-8.01,8.96-13.88h17.62c-2.09,10.35-7.02,18.46-14.78,24.34C892.64,341.66,882.64,344.59,870.4,344.59z"/>
		<path class="st4" d="M966.69,344.59c-7.07,0-13.41-1.62-19.04-4.85c-5.62-3.23-10.08-7.76-13.36-13.59
			c-3.28-5.82-4.93-12.62-4.93-20.38s1.67-14.56,5-20.38c3.33-5.82,7.84-10.35,13.51-13.59c5.67-3.23,11.99-4.85,18.96-4.85
			c7.07,0,13.41,1.62,19.04,4.85c5.62,3.24,10.1,7.76,13.44,13.59c3.33,5.82,5,12.62,5,20.38s-1.67,14.56-5,20.38
			c-3.34,5.82-7.84,10.35-13.51,13.59C980.13,342.97,973.76,344.59,966.69,344.59z M966.69,331c3.78,0,7.29-0.94,10.53-2.84
			c3.23-1.89,5.85-4.7,7.84-8.44c1.99-3.73,2.99-8.38,2.99-13.96c0-5.57-0.97-10.23-2.91-13.96c-1.94-3.73-4.53-6.54-7.76-8.44
			c-3.24-1.89-6.74-2.84-10.53-2.84c-3.78,0-7.29,0.95-10.53,2.84c-3.24,1.89-5.85,4.7-7.84,8.44c-1.99,3.73-2.99,8.39-2.99,13.96
			c0,5.58,0.99,10.23,2.99,13.96c1.99,3.73,4.58,6.55,7.76,8.44C959.43,330.06,962.91,331,966.69,331z"/>
		<path class="st4" d="M1030.44,254.71c-2.99,0-5.45-0.92-7.39-2.76c-1.94-1.84-2.91-4.15-2.91-6.94c0-2.79,0.97-5.1,2.91-6.94
			c1.94-1.84,4.4-2.76,7.39-2.76s5.45,0.92,7.39,2.76c1.94,1.84,2.91,4.16,2.91,6.94c0,2.79-0.97,5.1-2.91,6.94
			C1035.89,253.79,1033.43,254.71,1030.44,254.71z M1022.53,342.8v-74.05h15.83v74.05H1022.53z"/>
		<path class="st4" d="M1059.26,342.8v-74.05h14.03l1.19,12.99c2.29-4.58,5.65-8.19,10.08-10.82c4.43-2.64,9.53-3.96,15.3-3.96
			c8.96,0,16,2.79,21.13,8.36c5.13,5.58,7.69,13.88,7.69,24.93v42.55h-15.68v-40.91c0-14.33-5.87-21.5-17.62-21.5
			c-5.87,0-10.73,2.09-14.56,6.27c-3.83,4.18-5.75,10.15-5.75,17.92v38.22H1059.26z"/>
		<path class="st4" d="M1176.91,344.59c-9.36,0-17.07-2.29-23.14-6.87c-6.07-4.58-9.55-10.65-10.45-18.21h15.98
			c0.79,3.38,2.69,6.3,5.67,8.73c2.99,2.44,6.92,3.66,11.79,3.66c4.78,0,8.26-0.99,10.45-2.99c2.19-1.99,3.28-4.28,3.28-6.87
			c0-3.78-1.52-6.34-4.55-7.69c-3.04-1.34-7.24-2.56-12.62-3.66c-4.18-0.9-8.34-2.09-12.47-3.58c-4.13-1.49-7.57-3.61-10.3-6.34
			c-2.74-2.74-4.11-6.44-4.11-11.12c0-6.47,2.49-11.87,7.46-16.2c4.98-4.33,11.94-6.49,20.9-6.49c8.26,0,14.95,1.99,20.08,5.97
			c5.13,3.98,8.14,9.61,9.03,16.87h-15.23c-0.5-3.18-1.97-5.67-4.4-7.46c-2.44-1.79-5.7-2.69-9.78-2.69c-3.98,0-7.07,0.82-9.26,2.46
			c-2.19,1.64-3.28,3.76-3.28,6.35c0,2.59,1.52,4.63,4.55,6.12c3.03,1.49,7.04,2.84,12.02,4.03c4.98,1.1,9.58,2.37,13.81,3.81
			c4.23,1.44,7.64,3.56,10.23,6.35c2.59,2.79,3.88,6.87,3.88,12.24c0.1,6.77-2.52,12.39-7.84,16.87
			C1193.3,342.35,1186.06,344.59,1176.91,344.59z"/>
	</g>
</g>
</svg>
