<?xml version="1.0" encoding="utf-8"?>
<!-- Generator: Adobe Illustrator 25.2.0, SVG Export Plug-In . SVG Version: 6.00 Build 0)  -->
<svg version="1.1" xmlns="http://www.w3.org/2000/svg" xmlns:xlink="http://www.w3.org/1999/xlink" x="0px" y="0px"
	 viewBox="0 0 612 792" style="enable-background:new 0 0 612 792;" xml:space="preserve">
<style type="text/css">
	.st0{fill:#F0C30F;}
	.st1{fill:#E67E22;}
	.st2{fill:#F39C12;}
	.st3{fill:#D35400;}
</style>
<g id="Capa_3">
	<path class="st0" d="M286.55,424.81c2.29-2.94,4.88-4.41,5.67-4.85c32.32-18.34,63.66-38.53,96.91-55.14
		c52.79-26.36,92.89-51.14,96.2-53.6c0.19-0.14,1.47-1.11,3.36-2.08c2.16-1.11,4.31-2.31,6.78-2.22c5.01,0.17,8.33,4.4,8.53,4.67
		c2.65,3.48,2.64,7.64,2.62,9.04c-0.25,15.87-2.17,95.46-2.25,110.9c-0.1,18.77,1.68,101.86,0.74,113.81
		c-0.11,1.4-0.47,4.54-2.48,7.62c-0.54,0.83-2.88,4.22-6.98,5.67c-1.25,0.44-4.97,1.51-10.73-0.64
		c-16.49-6.17-84.1-51.67-124.66-71.05c0,0-7.25-3.46-66.75-42.35c-0.55-0.36-3.8-2.54-6.28-6.57c-0.78-1.27-4.03-6.57-2.1-10.99
		C285.47,426.2,285.89,425.65,286.55,424.81z"/>
</g>
<g id="Capa_4">
	<path class="st1" d="M399.19,561.5c-5.52,2.57-10.55,2.14-14.56,1.89c-9.33-0.58-18.7,0.3-28.04-0.05
		c-8.06-0.3-16.13-0.41-24.18-0.76c-24.69-1.07-41.24,0.08-68.84-0.22c0,0-116.57-1.25-127.69,0.39c-0.28,0.04-2.13,0.33-4.58,0.25
		c-2.82-0.09-5.66-0.08-8.06-1.7c-4.87-3.28-5.6-10.03-5.64-10.46c-0.55-5.8,2.16-10.47,2.86-11.67
		c60.57-103.94,78.91-142.42,78.91-142.42s24.67-51.77,58.22-106.74c0.72-1.19,2.93-4.61,7.06-6.96c1.03-0.59,5.4-2.93,10.34-2.01
		c5.44,1.01,8.87,5.48,10.25,7.33c12.61,16.95,54.15,117.77,72.69,156.1c22.92,47.37,27.1,54.61,27.1,54.61
		c12.58,21.75,29.38,46.75,21.98,56.49C405.88,557.05,403.02,559.71,399.19,561.5z"/>
</g>
<g id="Capa_2">
	<path class="st2" d="M350.35,181.14c2.09,3.09,2.68,6,2.86,6.89c7.47,36.41,16.99,72.45,22.52,109.2
		c8.77,58.35,19.96,104.15,21.28,108.05c0.08,0.23,0.6,1.74,0.95,3.84c0.39,2.4,0.86,4.81,0.02,7.13c-1.71,4.72-6.76,6.56-7.08,6.67
		c-4.29,1.5-8.38,0.04-9.4-0.3c-70.97-23.95-144.1-42.04-213.26-70.82c-0.88-0.37-4-1.64-6.48-4.72c-0.62-0.77-3.13-4.04-3.24-8.39
		c-0.03-1.32,0.09-5.19,3.93-10.01c10.96-13.78,75.11-64.03,106.08-96.63c0,0,5.53-5.83,60.9-50.41c0.51-0.41,3.59-2.83,8.19-3.94
		c1.45-0.35,7.49-1.81,11.1,1.39C349.37,179.68,349.75,180.26,350.35,181.14z"/>
</g>
<g id="Capa_5">
	<path class="st2" d="M468.96,494.31c-0.02-1.51-0.03-3.03-0.05-4.54c-0.03-2.61-2.28-5.12-5-5c-0.71,0.03-1.4,0.21-2.02,0.49
		c-0.63-0.11-1.26-0.15-1.9-0.11c-0.15-0.06-0.28-0.13-0.44-0.17c-1.2-0.33-2.79-0.18-3.85,0.5c-1.42,0.91-2.55,2.78-2.54,4.58
		c-1.11,2.47-1.13,5.43,0.32,7.87c1.67,2.8,5.53,3.26,7.85,1.01c0.09-0.09,0.17-0.18,0.26-0.28c0.52,0.28,1.09,0.47,1.7,0.55
		c2.26,0.3,5.05-1.13,5.49-3.58c0.08-0.45,0.12-0.89,0.15-1.33C468.94,494.31,468.95,494.31,468.96,494.31z"/>
	<circle class="st1" cx="324.18" cy="246.49" r="14.39"/>
	<circle class="st1" cx="338.43" cy="302.4" r="14.25"/>
	<ellipse class="st3" cx="213.53" cy="479.03" rx="12.54" ry="13.53"/>
	<ellipse class="st3" cx="187.44" cy="520.71" rx="13.55" ry="12.34"/>
	<circle class="st3" cx="241.44" cy="521.72" r="13.35"/>
	<circle class="st2" cx="459.86" cy="492.49" r="13.46"/>
</g>
</svg>
